# xmcd CD database file
#
# Track frame offsets:
#	150
#	14442
#	32524
#	51014
#	67987
#	87887
#	104320
#	114633
#	139424
#	162078
#	182273
#	196856
#	217909
#	234097
#	253223
#	279742
#
# Disc length: 4291 seconds
#
# Revision: 0
# Processed by: cddbd v1.5.1PL0 Copyright (c) Steve Scherf et al.
# Submitted via: CDex 1.51
#
DISCID=d210c110
DTITLE=Bob Dylan - Dylan and the dead - The complete rehersals Volume  1 - Disc 1
DYEAR=1900
DGENRE=RockPopAlbums
TTITLE0=The Times They Are A-Changin'
TTITLE1=When I Paint My Masterpiece
TTITLE2=Man Of Peace
TTITLE3=I'll Be Your Baby Tonight
TTITLE4=The Ballad Of Ira Hayes
TTITLE5=I Want You
TTITLE6=Ballad Of A Thin Man
TTITLE7=Stuck Inside Of Mobile With The Memphis Blues Again
TTITLE8=Dead Man, Dead Man
TTITLE9=Queen Jane Approximately
TTITLE10=The French Girl
TTITLE11=In The Summertime
TTITLE12=Man Of Peace
TTITLE13=Union Sundown
TTITLE14=It's All Over Now, Baby Blue
TTITLE15=Joey
EXTD=
EXTT0=
EXTT1=
EXTT2=
EXTT3=
EXTT4=
EXTT5=
EXTT6=
EXTT7=
EXTT8=
EXTT9=
EXTT10=
EXTT11=
EXTT12=
EXTT13=
EXTT14=
EXTT15=
PLAYORDER=
